<?xml version="1.0" encoding="UTF-8" standalone="no"?>
<!-- Created with Inkscape (http://www.inkscape.org/) -->

<svg
   xmlns:dc="http://purl.org/dc/elements/1.1/"
   xmlns:cc="http://creativecommons.org/ns#"
   xmlns:rdf="http://www.w3.org/1999/02/22-rdf-syntax-ns#"
   xmlns:svg="http://www.w3.org/2000/svg"
   xmlns="http://www.w3.org/2000/svg"
   xmlns:sodipodi="http://sodipodi.sourceforge.net/DTD/sodipodi-0.dtd"
   xmlns:inkscape="http://www.inkscape.org/namespaces/inkscape"
   width="181.86093mm"
   height="67.946495mm"
   viewBox="0 0 181.86093 67.946496"
   version="1.1"
   id="svg8"
   inkscape:export-filename="/home/pga/bitmap.png"
   inkscape:export-xdpi="76"
   inkscape:export-ydpi="76"
   inkscape:version="0.92.4 (unknown)"
   sodipodi:docname="logo.svg">
  <defs
     id="defs2" />
  <sodipodi:namedview
     id="base"
     pagecolor="#ffffff"
     bordercolor="#666666"
     borderopacity="1.0"
     inkscape:pageopacity="0.0"
     inkscape:pageshadow="2"
     inkscape:zoom="0.50000001"
     inkscape:cx="354.53399"
     inkscape:cy="111.871"
     inkscape:document-units="mm"
     inkscape:current-layer="layer1"
     showgrid="false"
     inkscape:window-width="1920"
     inkscape:window-height="1004"
     inkscape:window-x="0"
     inkscape:window-y="0"
     inkscape:window-maximized="1"
     fit-margin-top="0"
     fit-margin-left="0"
     fit-margin-right="0"
     fit-margin-bottom="0"
     width="296mm" />
  <metadata
     id="metadata5">
    <rdf:RDF>
      <cc:Work
         rdf:about="">
        <dc:format>image/svg+xml</dc:format>
        <dc:type
           rdf:resource="http://purl.org/dc/dcmitype/StillImage" />
        <dc:title />
      </cc:Work>
    </rdf:RDF>
  </metadata>
  <g
     inkscape:label="Layer 1"
     inkscape:groupmode="layer"
     id="layer1"
     transform="translate(-82.949981,-6.7938269)">
    <path
       sodipodi:type="inkscape:offset"
       inkscape:radius="0"
       inkscape:original="M 82.949219 28.359375 L 82.949219 64.376953 L 99.052734 64.376953 C 101.1186 64.376953 103.03386 63.920259 104.79492 63.005859 C 106.55599 62.057593 108.0783 60.770131 109.36523 59.144531 C 110.65217 57.518931 111.65208 55.622545 112.36328 53.455078 C 113.10835 51.253745 113.48047 48.900665 113.48047 46.394531 C 113.48047 43.922265 113.12526 41.584146 112.41406 39.382812 C 111.73673 37.181479 110.7199 35.268178 109.36523 33.642578 C 108.04443 32.016978 106.38485 30.73147 104.38672 29.783203 C 102.38859 28.834936 100.08625 28.359375 97.478516 28.359375 L 82.949219 28.359375 z M 90.671875 35.371094 L 97.529297 35.371094 C 98.985564 35.371094 100.2392 35.675556 101.28906 36.285156 C 102.33893 36.894756 103.20157 37.706656 103.87891 38.722656 C 104.55624 39.738656 105.04872 40.92463 105.35352 42.279297 C 105.65832 43.600097 105.81055 44.989046 105.81055 46.445312 C 105.81055 47.901579 105.6414 49.288575 105.30273 50.609375 C 104.99793 51.930175 104.50546 53.099234 103.82812 54.115234 C 103.15079 55.131234 102.28815 55.945088 101.23828 56.554688 C 100.22228 57.130421 98.985564 57.417969 97.529297 57.417969 L 90.671875 57.417969 L 90.671875 35.371094 z M 150.85547 38.46875 C 149.02667 38.46875 147.31634 38.823956 145.72461 39.535156 C 144.13288 40.21249 142.74393 41.161659 141.55859 42.380859 C 140.37326 43.566193 139.42409 44.972056 138.71289 46.597656 C 138.03556 48.18939 137.69727 49.899716 137.69727 51.728516 C 137.69727 53.557316 138.03556 55.284556 138.71289 56.910156 C 139.42409 58.50189 140.37326 59.9058 141.55859 61.125 C 142.74393 62.310333 144.13288 63.259503 145.72461 63.970703 C 147.31634 64.648036 149.02667 64.986328 150.85547 64.986328 C 152.6504 64.986328 154.34186 64.648036 155.93359 63.970703 C 157.52533 63.259503 158.91428 62.310333 160.09961 61.125 C 161.28494 59.9058 162.2172 58.50189 162.89453 56.910156 C 163.60573 55.284556 163.96094 53.557316 163.96094 51.728516 C 163.96094 49.899716 163.60573 48.18939 162.89453 46.597656 C 162.2172 44.972056 161.28494 43.566193 160.09961 42.380859 C 158.91428 41.161659 157.52533 40.21249 155.93359 39.535156 C 154.34186 38.823956 152.6504 38.46875 150.85547 38.46875 z M 178.75391 38.46875 C 177.06057 38.46875 175.48752 38.807042 174.03125 39.484375 C 172.60885 40.127842 171.37213 41.026268 170.32227 42.177734 C 169.2724 43.295334 168.44163 44.616625 167.83203 46.140625 C 167.2563 47.664625 166.96875 49.290378 166.96875 51.017578 C 166.96875 52.744778 167.2563 54.385493 167.83203 55.943359 C 168.44163 57.467359 169.2724 58.805565 170.32227 59.957031 C 171.37213 61.074631 172.60885 61.973057 174.03125 62.650391 C 175.48752 63.293857 177.06057 63.615234 178.75391 63.615234 C 180.27791 63.615234 181.68377 63.361516 182.9707 62.853516 C 184.25764 62.311649 185.39287 61.599283 186.375 60.71875 L 186.375 61.226562 C 186.375 62.615096 186.15511 63.784155 185.71484 64.732422 C 185.30844 65.714555 184.73139 66.528408 183.98633 67.171875 C 183.27513 67.815342 182.4294 68.272035 181.44727 68.542969 C 180.46513 68.847769 179.41447 69 178.29688 69 C 177.45021 69 176.60448 68.915427 175.75781 68.746094 C 174.94501 68.610627 174.16499 68.407652 173.41992 68.136719 C 172.70872 67.865785 172.06597 67.544408 171.49023 67.171875 C 170.94837 66.799342 170.5255 66.374524 170.2207 65.900391 L 170.2207 72.455078 C 171.4399 73.166278 172.81194 73.724459 174.33594 74.130859 C 175.85994 74.537259 177.48569 74.740234 179.21289 74.740234 C 181.24489 74.740234 183.17511 74.469601 185.00391 73.927734 C 186.86657 73.385868 188.54307 72.385954 190.0332 70.929688 C 190.846 70.116888 191.47184 69.237329 191.91211 68.289062 C 192.38624 67.340796 192.72453 66.256309 192.92773 65.037109 C 193.13093 63.851776 193.24934 62.513571 193.2832 61.023438 C 193.35094 59.499438 193.38477 57.772197 193.38477 55.841797 L 193.38477 39.179688 L 187.39062 39.179688 L 186.375 41.111328 C 185.4606 40.196928 184.3592 39.535306 183.07227 39.128906 C 181.78533 38.68864 180.34564 38.46875 178.75391 38.46875 z M 208.91797 38.46875 C 207.22464 38.46875 205.64963 38.807042 204.19336 39.484375 C 202.77096 40.127842 201.53424 41.026268 200.48438 42.177734 C 199.43451 43.295334 198.60569 44.616625 197.99609 46.140625 C 197.42036 47.664625 197.13086 49.290378 197.13086 51.017578 C 197.13086 52.744778 197.42036 54.385493 197.99609 55.943359 C 198.60569 57.467359 199.43451 58.805565 200.48438 59.957031 C 201.53424 61.074631 202.77096 61.973057 204.19336 62.650391 C 205.64963 63.293857 207.22464 63.615234 208.91797 63.615234 C 210.44197 63.615234 211.84588 63.361516 213.13281 62.853516 C 214.41975 62.311649 215.55498 61.599283 216.53711 60.71875 L 216.53711 61.226562 C 216.53711 62.615096 216.31722 63.784155 215.87695 64.732422 C 215.47055 65.714555 214.89546 66.528408 214.15039 67.171875 C 213.43919 67.815342 212.59151 68.272035 211.60938 68.542969 C 210.62724 68.847769 209.57854 69 208.46094 69 C 207.61427 69 206.76659 68.915427 205.91992 68.746094 C 205.10712 68.610627 204.32905 68.407652 203.58398 68.136719 C 202.87278 67.865785 202.22808 67.544408 201.65234 67.171875 C 201.11048 66.799342 200.68761 66.374524 200.38281 65.900391 L 200.38281 72.455078 C 201.60201 73.166278 202.97405 73.724459 204.49805 74.130859 C 206.02205 74.537259 207.6478 74.740234 209.375 74.740234 C 211.407 74.740234 213.33722 74.469601 215.16602 73.927734 C 217.02868 73.385868 218.70518 72.385954 220.19531 70.929688 C 221.00811 70.116888 221.63395 69.237329 222.07422 68.289062 C 222.54835 67.340796 222.88664 66.256309 223.08984 65.037109 C 223.29304 63.851776 223.41145 62.513571 223.44531 61.023438 C 223.51305 59.499438 223.54688 57.772197 223.54688 55.841797 L 223.54688 39.179688 L 217.55273 39.179688 L 216.53711 41.111328 C 215.62271 40.196928 214.52131 39.535306 213.23438 39.128906 C 211.94744 38.68864 210.5097 38.46875 208.91797 38.46875 z M 240.34961 38.46875 C 238.52081 38.46875 236.81048 38.823956 235.21875 39.535156 C 233.62702 40.21249 232.23807 41.161659 231.05273 42.380859 C 229.8674 43.566193 228.92018 44.972056 228.20898 46.597656 C 227.53165 48.18939 227.19336 49.899716 227.19336 51.728516 C 227.19336 53.557316 227.53165 55.284556 228.20898 56.910156 C 228.92018 58.50189 229.8674 59.9058 231.05273 61.125 C 232.23807 62.310333 233.62702 63.259503 235.21875 63.970703 C 236.81048 64.648036 238.52081 64.986328 240.34961 64.986328 C 242.14454 64.986328 243.83795 64.648036 245.42969 63.970703 C 247.02142 63.259503 248.41037 62.310333 249.5957 61.125 C 250.78104 59.9058 251.71134 58.50189 252.38867 56.910156 C 253.09987 55.284556 253.45703 53.557316 253.45703 51.728516 C 253.45703 49.899716 253.09987 48.18939 252.38867 46.597656 C 251.71134 44.972056 250.78104 43.566193 249.5957 42.380859 C 248.41037 41.161659 247.02142 40.21249 245.42969 39.535156 C 243.83795 38.823956 242.14454 38.46875 240.34961 38.46875 z M 131.90039 38.519531 C 130.91826 38.519531 130.0387 38.637933 129.25977 38.875 C 128.48083 39.112067 127.78538 39.433444 127.17578 39.839844 C 126.56618 40.212377 126.04183 40.654109 125.60156 41.162109 C 125.1613 41.636243 124.77226 42.14368 124.43359 42.685547 L 123.77344 39.179688 L 117.42188 39.179688 L 117.42188 64.376953 L 124.43359 64.376953 L 124.43359 51.017578 C 124.43359 50.137045 124.63657 49.323192 125.04297 48.578125 C 125.44937 47.799192 125.99064 47.139523 126.66797 46.597656 C 127.3453 46.05579 128.14224 45.630972 129.05664 45.326172 C 130.00491 45.021372 131.01978 44.869141 132.10352 44.869141 C 132.40832 44.869141 132.74661 44.90297 133.11914 44.970703 C 133.49167 45.00457 133.83192 45.055314 134.13672 45.123047 C 134.50925 45.224647 134.88137 45.30922 135.25391 45.376953 L 135.91406 39.128906 C 134.39006 38.722506 133.05186 38.519531 131.90039 38.519531 z M 150.85547 44.716797 C 151.70214 44.716797 152.48021 44.919772 153.19141 45.326172 C 153.93647 45.698705 154.57923 46.22501 155.12109 46.902344 C 155.69683 47.54581 156.13856 48.306967 156.44336 49.1875 C 156.78203 50.068033 156.95117 51.017203 156.95117 52.033203 C 156.95117 53.049203 156.78203 53.979505 156.44336 54.826172 C 156.13856 55.638972 155.69683 56.351338 155.12109 56.960938 C 154.57923 57.536671 153.93647 57.993365 153.19141 58.332031 C 152.48021 58.670698 151.70214 58.839844 150.85547 58.839844 C 150.0088 58.839844 149.21186 58.670698 148.4668 58.332031 C 147.72173 57.993365 147.06206 57.536671 146.48633 56.960938 C 145.94446 56.351338 145.50273 55.638972 145.16406 54.826172 C 144.85926 53.979505 144.70703 53.049203 144.70703 52.033203 C 144.70703 51.017203 144.85926 50.068033 145.16406 49.1875 C 145.50273 48.306967 145.94446 47.54581 146.48633 46.902344 C 147.06206 46.22501 147.72173 45.698705 148.4668 45.326172 C 149.21186 44.919772 150.0088 44.716797 150.85547 44.716797 z M 180.17773 44.716797 C 181.2276 44.716797 182.14099 44.902857 182.91992 45.275391 C 183.69886 45.647924 184.34356 46.1404 184.85156 46.75 C 185.35956 47.325733 185.73168 48.002317 185.96875 48.78125 C 186.23968 49.526317 186.375 50.289426 186.375 51.068359 C 186.375 51.779559 186.2566 52.506886 186.01953 53.251953 C 185.78246 53.99702 185.41034 54.673603 184.90234 55.283203 C 184.39434 55.892803 183.74964 56.402194 182.9707 56.808594 C 182.19177 57.181127 181.26147 57.367187 180.17773 57.367188 C 179.2972 57.367187 178.48335 57.214956 177.73828 56.910156 C 176.99321 56.57149 176.33355 56.112843 175.75781 55.537109 C 175.21595 54.961376 174.77617 54.301707 174.4375 53.556641 C 174.1327 52.777707 173.98047 51.948893 173.98047 51.068359 C 173.98047 50.187826 174.1327 49.373973 174.4375 48.628906 C 174.77617 47.849973 175.21595 47.17339 175.75781 46.597656 C 176.33355 46.021923 176.99321 45.563276 177.73828 45.224609 C 178.48335 44.885943 179.2972 44.716797 180.17773 44.716797 z M 210.33984 44.716797 C 211.38971 44.716797 212.3031 44.902857 213.08203 45.275391 C 213.86096 45.647924 214.50567 46.1404 215.01367 46.75 C 215.52167 47.325733 215.89379 48.002317 216.13086 48.78125 C 216.40179 49.526317 216.53711 50.289426 216.53711 51.068359 C 216.53711 51.779559 216.41871 52.506886 216.18164 53.251953 C 215.94457 53.99702 215.57245 54.673603 215.06445 55.283203 C 214.55645 55.892803 213.91175 56.402194 213.13281 56.808594 C 212.35388 57.181127 211.42358 57.367187 210.33984 57.367188 C 209.45931 57.367187 208.64546 57.214956 207.90039 56.910156 C 207.15532 56.57149 206.49566 56.112843 205.91992 55.537109 C 205.37806 54.961376 204.93828 54.301707 204.59961 53.556641 C 204.29481 52.777707 204.14258 51.948893 204.14258 51.068359 C 204.14258 50.187826 204.29481 49.373973 204.59961 48.628906 C 204.93828 47.849973 205.37806 47.17339 205.91992 46.597656 C 206.49566 46.021923 207.15532 45.563276 207.90039 45.224609 C 208.64546 44.885943 209.45931 44.716797 210.33984 44.716797 z M 240.34961 44.716797 C 241.19628 44.716797 241.9763 44.919772 242.6875 45.326172 C 243.43257 45.698705 244.07532 46.22501 244.61719 46.902344 C 245.19292 47.54581 245.6327 48.306967 245.9375 49.1875 C 246.27617 50.068033 246.44531 51.017203 246.44531 52.033203 C 246.44531 53.049203 246.27617 53.979505 245.9375 54.826172 C 245.6327 55.638972 245.19292 56.351338 244.61719 56.960938 C 244.07532 57.536671 243.43257 57.993365 242.6875 58.332031 C 241.9763 58.670698 241.19628 58.839844 240.34961 58.839844 C 239.50294 58.839844 238.70796 58.670698 237.96289 58.332031 C 237.21782 57.993365 236.5562 57.536671 235.98047 56.960938 C 235.4386 56.351338 234.99882 55.638972 234.66016 54.826172 C 234.35536 53.979505 234.20312 53.049203 234.20312 52.033203 C 234.20313 51.017203 234.35536 50.068033 234.66016 49.1875 C 234.99882 48.306967 235.4386 47.54581 235.98047 46.902344 C 236.5562 46.22501 237.21782 45.698705 237.96289 45.326172 C 238.70796 44.919772 239.50294 44.716797 240.34961 44.716797 z "
       style="font-style:normal;font-variant:normal;font-weight:normal;font-stretch:normal;font-size:10.58333302px;line-height:1.25;font-family:Kollektif;-inkscape-font-specification:Kollektif;letter-spacing:0px;word-spacing:0px;fill:#273444;fill-opacity:1;stroke:none;stroke-width:0.26458332"
       id="text817"
       d="m 82.949219,28.359375 v 36.017578 h 16.103515 c 2.065866,0 3.981126,-0.456694 5.742186,-1.371094 1.76107,-0.948266 3.28338,-2.235728 4.57031,-3.861328 1.28694,-1.6256 2.28685,-3.521986 2.99805,-5.689453 0.74507,-2.201333 1.11719,-4.554413 1.11719,-7.060547 0,-2.472266 -0.35521,-4.810385 -1.06641,-7.011719 -0.67733,-2.201333 -1.69416,-4.114634 -3.04883,-5.740234 -1.3208,-1.6256 -2.98038,-2.911108 -4.97851,-3.859375 -1.99813,-0.948267 -4.30047,-1.423828 -6.908204,-1.423828 z m 7.722656,7.011719 h 6.857422 c 1.456267,0 2.709903,0.304462 3.759763,0.914062 1.04987,0.6096 1.91251,1.4215 2.58985,2.4375 0.67733,1.016 1.16981,2.201974 1.47461,3.556641 0.3048,1.3208 0.45703,2.709749 0.45703,4.166015 0,1.456267 -0.16915,2.843263 -0.50782,4.164063 -0.3048,1.3208 -0.79727,2.489859 -1.47461,3.505859 -0.67733,1.016 -1.53997,1.829854 -2.58984,2.439454 -1.016,0.575733 -2.252716,0.863281 -3.708983,0.863281 h -6.857422 z m 60.183595,3.097656 c -1.8288,0 -3.53913,0.355206 -5.13086,1.066406 -1.59173,0.677334 -2.98068,1.626503 -4.16602,2.845703 -1.18533,1.185334 -2.1345,2.591197 -2.8457,4.216797 -0.67733,1.591734 -1.01562,3.30206 -1.01562,5.13086 0,1.8288 0.33829,3.55604 1.01562,5.18164 0.7112,1.591734 1.66037,2.995644 2.8457,4.214844 1.18534,1.185333 2.57429,2.134503 4.16602,2.845703 1.59173,0.677333 3.30206,1.015625 5.13086,1.015625 1.79493,0 3.48639,-0.338292 5.07812,-1.015625 1.59174,-0.7112 2.98069,-1.66037 4.16602,-2.845703 1.18533,-1.2192 2.11759,-2.62311 2.79492,-4.214844 0.7112,-1.6256 1.06641,-3.35284 1.06641,-5.18164 0,-1.8288 -0.35521,-3.539126 -1.06641,-5.13086 -0.67733,-1.6256 -1.60959,-3.031463 -2.79492,-4.216797 -1.18533,-1.2192 -2.57428,-2.168369 -4.16602,-2.845703 -1.59173,-0.7112 -3.28319,-1.066406 -5.07812,-1.066406 z m 27.89844,0 c -1.69334,0 -3.26639,0.338292 -4.72266,1.015625 -1.4224,0.643467 -2.65912,1.541893 -3.70898,2.693359 -1.04987,1.1176 -1.88064,2.438891 -2.49024,3.962891 -0.57573,1.524 -0.86328,3.149753 -0.86328,4.876953 0,1.7272 0.28755,3.367915 0.86328,4.925781 0.6096,1.524 1.44037,2.862206 2.49024,4.013672 1.04986,1.1176 2.28658,2.016026 3.70898,2.69336 1.45627,0.643466 3.02932,0.964843 4.72266,0.964843 1.524,0 2.92986,-0.253718 4.21679,-0.761718 1.28694,-0.541867 2.42217,-1.254233 3.4043,-2.134766 v 0.507812 c 0,1.388534 -0.21989,2.557593 -0.66016,3.50586 -0.4064,0.982133 -0.98345,1.795986 -1.72851,2.439453 -0.7112,0.643467 -1.55693,1.10016 -2.53906,1.371094 C 180.46513,68.847769 179.41447,69 178.29688,69 c -0.84667,0 -1.6924,-0.08457 -2.53907,-0.253906 -0.8128,-0.135467 -1.59282,-0.338442 -2.33789,-0.609375 -0.7112,-0.270934 -1.35395,-0.592311 -1.92969,-0.964844 -0.54186,-0.372533 -0.96473,-0.797351 -1.26953,-1.271484 v 6.554687 c 1.2192,0.7112 2.59124,1.269381 4.11524,1.675781 1.524,0.4064 3.14975,0.609375 4.87695,0.609375 2.032,0 3.96222,-0.270633 5.79102,-0.8125 1.86266,-0.541866 3.53916,-1.54178 5.02929,-2.998046 0.8128,-0.8128 1.43864,-1.692359 1.87891,-2.640626 0.47413,-0.948266 0.81242,-2.032753 1.01562,-3.251953 0.2032,-1.185333 0.32161,-2.523538 0.35547,-4.013671 0.0677,-1.524 0.10157,-3.251241 0.10157,-5.181641 V 39.179688 h -5.99415 l -1.01562,1.93164 c -0.9144,-0.9144 -2.0158,-1.576022 -3.30273,-1.982422 -1.28694,-0.440266 -2.72663,-0.660156 -4.31836,-0.660156 z m 30.16406,0 c -1.69333,0 -3.26834,0.338292 -4.72461,1.015625 -1.4224,0.643467 -2.65912,1.541893 -3.70898,2.693359 -1.04987,1.1176 -1.87869,2.438891 -2.48829,3.962891 -0.57573,1.524 -0.86523,3.149753 -0.86523,4.876953 0,1.7272 0.2895,3.367915 0.86523,4.925781 0.6096,1.524 1.43842,2.862206 2.48829,4.013672 1.04986,1.1176 2.28658,2.016026 3.70898,2.69336 1.45627,0.643466 3.03128,0.964843 4.72461,0.964843 1.524,0 2.92791,-0.253718 4.21484,-0.761718 1.28694,-0.541867 2.42217,-1.254233 3.4043,-2.134766 v 0.507812 c 0,1.388534 -0.21989,2.557593 -0.66016,3.50586 -0.4064,0.982133 -0.98149,1.795986 -1.72656,2.439453 -0.7112,0.643467 -1.55888,1.10016 -2.54101,1.371094 C 210.62724,68.847769 209.57854,69 208.46094,69 c -0.84667,0 -1.69435,-0.08457 -2.54102,-0.253906 -0.8128,-0.135467 -1.59087,-0.338442 -2.33594,-0.609375 -0.7112,-0.270934 -1.3559,-0.592311 -1.93164,-0.964844 -0.54186,-0.372533 -0.96473,-0.797351 -1.26953,-1.271484 v 6.554687 c 1.2192,0.7112 2.59124,1.269381 4.11524,1.675781 1.524,0.4064 3.14975,0.609375 4.87695,0.609375 2.032,0 3.96222,-0.270633 5.79102,-0.8125 1.86266,-0.541866 3.53916,-1.54178 5.02929,-2.998046 0.8128,-0.8128 1.43864,-1.692359 1.87891,-2.640626 0.47413,-0.948266 0.81242,-2.032753 1.01562,-3.251953 0.2032,-1.185333 0.32161,-2.523538 0.35547,-4.013671 0.0677,-1.524 0.10157,-3.251241 0.10157,-5.181641 V 39.179688 h -5.99415 l -1.01562,1.93164 c -0.9144,-0.9144 -2.0158,-1.576022 -3.30273,-1.982422 -1.28694,-0.440266 -2.72468,-0.660156 -4.31641,-0.660156 z m 31.43164,0 c -1.8288,0 -3.53913,0.355206 -5.13086,1.066406 -1.59173,0.677334 -2.98068,1.626503 -4.16602,2.845703 -1.18533,1.185334 -2.13255,2.591197 -2.84375,4.216797 -0.67733,1.591734 -1.01562,3.30206 -1.01562,5.13086 0,1.8288 0.33829,3.55604 1.01562,5.18164 0.7112,1.591734 1.65842,2.995644 2.84375,4.214844 1.18534,1.185333 2.57429,2.134503 4.16602,2.845703 1.59173,0.677333 3.30206,1.015625 5.13086,1.015625 1.79493,0 3.48834,-0.338292 5.08008,-1.015625 1.59173,-0.7112 2.98068,-1.66037 4.16601,-2.845703 1.18534,-1.2192 2.11564,-2.62311 2.79297,-4.214844 0.7112,-1.6256 1.06836,-3.35284 1.06836,-5.18164 0,-1.8288 -0.35716,-3.539126 -1.06836,-5.13086 -0.67733,-1.6256 -1.60763,-3.031463 -2.79297,-4.216797 -1.18533,-1.2192 -2.57428,-2.168369 -4.16601,-2.845703 -1.59174,-0.7112 -3.28515,-1.066406 -5.08008,-1.066406 z m -108.44922,0.05078 c -0.98213,0 -1.86169,0.118402 -2.64062,0.355469 -0.77894,0.237067 -1.47439,0.558444 -2.08399,0.964844 -0.6096,0.372533 -1.13395,0.814265 -1.57422,1.322265 -0.44026,0.474134 -0.8293,0.981571 -1.16797,1.523438 l -0.66015,-3.505859 h -6.35156 v 25.197265 h 7.01171 V 51.017578 c 0,-0.880533 0.20298,-1.694386 0.60938,-2.439453 0.4064,-0.778933 0.94767,-1.438602 1.625,-1.980469 0.67733,-0.541866 1.47427,-0.966684 2.38867,-1.271484 0.94827,-0.3048 1.96314,-0.457031 3.04688,-0.457031 0.3048,0 0.64309,0.03383 1.01562,0.101562 0.37253,0.03387 0.71278,0.08461 1.01758,0.152344 0.37253,0.1016 0.74465,0.186173 1.11719,0.253906 l 0.66015,-6.248047 c -1.524,-0.4064 -2.8622,-0.609375 -4.01367,-0.609375 z m 18.95508,6.197266 c 0.84667,0 1.62474,0.202975 2.33594,0.609375 0.74506,0.372533 1.38782,0.898838 1.92968,1.576172 0.57574,0.643466 1.01747,1.404623 1.32227,2.285156 0.33867,0.880533 0.50781,1.829703 0.50781,2.845703 0,1.016 -0.16914,1.946302 -0.50781,2.792969 -0.3048,0.8128 -0.74653,1.525166 -1.32227,2.134766 -0.54186,0.575733 -1.18462,1.032427 -1.92968,1.371093 -0.7112,0.338667 -1.48927,0.507813 -2.33594,0.507813 -0.84667,0 -1.64361,-0.169146 -2.38867,-0.507813 -0.74507,-0.338666 -1.40474,-0.79536 -1.98047,-1.371093 -0.54187,-0.6096 -0.9836,-1.321966 -1.32227,-2.134766 -0.3048,-0.846667 -0.45703,-1.776969 -0.45703,-2.792969 0,-1.016 0.15223,-1.96517 0.45703,-2.845703 0.33867,-0.880533 0.7804,-1.64169 1.32227,-2.285156 0.57573,-0.677334 1.2354,-1.203639 1.98047,-1.576172 0.74506,-0.4064 1.542,-0.609375 2.38867,-0.609375 z m 29.32226,0 c 1.04987,0 1.96326,0.18606 2.74219,0.558594 0.77894,0.372533 1.42364,0.865009 1.93164,1.474609 0.508,0.575733 0.88012,1.252317 1.11719,2.03125 0.27093,0.745067 0.40625,1.508176 0.40625,2.287109 0,0.7112 -0.1184,1.438527 -0.35547,2.183594 -0.23707,0.745067 -0.60919,1.42165 -1.11719,2.03125 -0.508,0.6096 -1.1527,1.118991 -1.93164,1.525391 -0.77893,0.372533 -1.70923,0.558593 -2.79297,0.558594 -0.88053,-10e-7 -1.69438,-0.152232 -2.43945,-0.457032 -0.74507,-0.338666 -1.40473,-0.797313 -1.98047,-1.373047 -0.54186,-0.575733 -0.98164,-1.235402 -1.32031,-1.980468 -0.3048,-0.778934 -0.45703,-1.607748 -0.45703,-2.488282 0,-0.880533 0.15223,-1.694386 0.45703,-2.439453 0.33867,-0.778933 0.77845,-1.455516 1.32031,-2.03125 0.57574,-0.575733 1.2354,-1.03438 1.98047,-1.373047 0.74507,-0.338666 1.55892,-0.507812 2.43945,-0.507812 z m 30.16211,0 c 1.04987,0 1.96326,0.18606 2.74219,0.558594 0.77893,0.372533 1.42364,0.865009 1.93164,1.474609 0.508,0.575733 0.88012,1.252317 1.11719,2.03125 0.27093,0.745067 0.40625,1.508176 0.40625,2.287109 0,0.7112 -0.1184,1.438527 -0.35547,2.183594 -0.23707,0.745067 -0.60919,1.42165 -1.11719,2.03125 -0.508,0.6096 -1.1527,1.118991 -1.93164,1.525391 -0.77893,0.372533 -1.70923,0.558593 -2.79297,0.558594 -0.88053,-10e-7 -1.69438,-0.152232 -2.43945,-0.457032 -0.74507,-0.338666 -1.40473,-0.797313 -1.98047,-1.373047 -0.54186,-0.575733 -0.98164,-1.235402 -1.32031,-1.980468 -0.3048,-0.778934 -0.45703,-1.607748 -0.45703,-2.488282 0,-0.880533 0.15223,-1.694386 0.45703,-2.439453 0.33867,-0.778933 0.77845,-1.455516 1.32031,-2.03125 0.57574,-0.575733 1.2354,-1.03438 1.98047,-1.373047 0.74507,-0.338666 1.55892,-0.507812 2.43945,-0.507812 z m 30.00977,0 c 0.84667,0 1.62669,0.202975 2.33789,0.609375 0.74507,0.372533 1.38782,0.898838 1.92969,1.576172 0.57573,0.643466 1.01551,1.404623 1.32031,2.285156 0.33867,0.880533 0.50781,1.829703 0.50781,2.845703 0,1.016 -0.16914,1.946302 -0.50781,2.792969 -0.3048,0.8128 -0.74458,1.525166 -1.32031,2.134766 -0.54187,0.575733 -1.18462,1.032427 -1.92969,1.371093 -0.7112,0.338667 -1.49122,0.507813 -2.33789,0.507813 -0.84667,0 -1.64165,-0.169146 -2.38672,-0.507813 -0.74507,-0.338666 -1.40669,-0.79536 -1.98242,-1.371093 -0.54187,-0.6096 -0.98165,-1.321966 -1.32031,-2.134766 -0.3048,-0.846667 -0.45704,-1.776969 -0.45704,-2.792969 10e-6,-1.016 0.15224,-1.96517 0.45704,-2.845703 0.33866,-0.880533 0.77844,-1.64169 1.32031,-2.285156 0.57573,-0.677334 1.23735,-1.203639 1.98242,-1.576172 0.74507,-0.4064 1.54005,-0.609375 2.38672,-0.609375 z" />
    <g
       style="fill:#000000"
       id="g883"
       transform="matrix(0,-0.19310706,0.19310706,0,205.77714,22.550297)">
      <g
         id="__id241_s1j87qcj7g"
         transform="translate(-54.80552)">
        <polygon
           points="72.2,308.2 69,184.1 64.2,308.2 "
           style="fill:#0080ff"
           id="polygon875"
           transform="matrix(1,0,0,0.71294449,0,52.846919)" />
      </g>
      <g
         id="__id242_s1j87qcj7g"
         transform="translate(-54.80552)">
        <path
           inkscape:connector-curvature="0"
           d="m 136.4,138.4 c 0,70.2 -68.2,115.9 -68.2,115.9 C 68.2,254.3 0,208.6 0,138.4 0,68.2 68.2,0 68.2,0 c 0,0 68.2,68.2 68.2,138.4 z"
           style="fill:#0080ff"
           id="path878" />
      </g>
      <path
         inkscape:connector-curvature="0"
         d="m 13.39448,0 c 0,0 -68.2,68.2 -68.2,138.4 0,70.2 68.2,115.9 68.2,115.9 z"
         style="opacity:0.07999998"
         id="path881" />
    </g>
    <text
       xml:space="preserve"
       style="font-style:normal;font-weight:normal;font-size:10.58333302px;line-height:1.25;font-family:sans-serif;letter-spacing:0px;word-spacing:0px;fill:#000000;fill-opacity:1;stroke:none;stroke-width:0.26458332"
       x="331.40643"
       y="89.479347"
       id="text3545"><tspan
         sodipodi:role="line"
         id="tspan3543"
         x="331.40643"
         y="98.843117"
         style="stroke-width:0.26458332" /></text>
    <text
       xml:space="preserve"
       style="font-style:normal;font-weight:normal;font-size:10.58333302px;line-height:1.25;font-family:sans-serif;letter-spacing:0px;word-spacing:0px;fill:#000000;fill-opacity:1;stroke:none;stroke-width:0.26458332"
       x="269.7471"
       y="67.670288"
       id="text826"><tspan
         sodipodi:role="line"
         id="tspan824"
         x="269.7471"
         y="77.034058"
         style="stroke-width:0.26458332" /></text>
    <rect
       style="opacity:1;fill:#273444;fill-opacity:1;stroke-width:0.09526565"
       id="rect830"
       width="7.521822"
       height="44.456753"
       x="257.28909"
       y="19.125162" />
  </g>
</svg>
